<svg xmlns="http://www.w3.org/2000/svg" xmlns:xlink="http://www.w3.org/1999/xlink" width="1984" zoomAndPan="magnify" viewBox="0 0 1488 436.499987" height="582" preserveAspectRatio="xMidYMid meet" version="1.0"><defs><g/><clipPath id="7526a44c0b"><path d="M 0.0429688 145 L 1326.683594 145 L 1326.683594 387.253906 L 0.0429688 387.253906 Z M 0.0429688 145 " clip-rule="nonzero"/></clipPath><clipPath id="4f9bf818f4"><rect x="0" width="1327" y="0" height="243"/></clipPath><clipPath id="df6b785925"><path d="M 752 0.816406 L 859 0.816406 L 859 243 L 752 243 Z M 752 0.816406 " clip-rule="nonzero"/></clipPath><clipPath id="7d14e78961"><rect x="0" width="107" y="0" height="243"/></clipPath><clipPath id="7512c2a1b3"><rect x="0" width="1327" y="0" height="388"/></clipPath></defs><g transform="matrix(1, 0, 0, 1, 78, 21)"><g clip-path="url(#7512c2a1b3)"><g clip-path="url(#7526a44c0b)"><g transform="matrix(1, 0, 0, 1, 0, 145)"><g clip-path="url(#4f9bf818f4)"><g fill="#d5cec4" fill-opacity="0.4"><g transform="translate(5.309635, 200.401259)"><g><path d="M 93.203125 -98.890625 C 96.023438 -93.648438 98.242188 -87.71875 99.859375 -81.09375 C 101.390625 -74.394531 102.15625 -67.378906 102.15625 -60.046875 C 102.15625 -52.703125 101.390625 -45.71875 99.859375 -39.09375 C 98.242188 -32.394531 96.023438 -26.425781 93.203125 -21.1875 C 89.410156 -14.320312 84.734375 -9.078125 79.171875 -5.453125 C 73.515625 -1.816406 67.257812 0 60.40625 0 L 16.34375 0 C 15.53125 0 14.960938 -0.363281 14.640625 -1.09375 C 14.316406 -1.738281 14.441406 -2.34375 15.015625 -2.90625 C 17.273438 -5.40625 18.40625 -8.269531 18.40625 -11.5 L 18.40625 -108.703125 C 18.40625 -112.003906 17.273438 -114.867188 15.015625 -117.296875 C 14.441406 -117.859375 14.316406 -118.503906 14.640625 -119.234375 C 14.960938 -119.960938 15.53125 -120.328125 16.34375 -120.328125 L 60.40625 -120.328125 C 67.257812 -120.328125 73.472656 -118.507812 79.046875 -114.875 C 84.609375 -111.164062 89.328125 -105.835938 93.203125 -98.890625 Z M 72.140625 -32.796875 C 74.078125 -36.191406 75.570312 -40.269531 76.625 -45.03125 C 77.675781 -49.707031 78.203125 -54.710938 78.203125 -60.046875 C 78.203125 -64.484375 77.796875 -68.878906 76.984375 -73.234375 C 76.179688 -77.515625 75.007812 -81.390625 73.46875 -84.859375 C 71.9375 -88.242188 70.082031 -90.984375 67.90625 -93.078125 C 65.644531 -95.179688 63.144531 -96.234375 60.40625 -96.234375 L 48.421875 -96.234375 C 46.722656 -96.234375 45.3125 -95.664062 44.1875 -94.53125 C 42.96875 -93.320312 42.359375 -91.910156 42.359375 -90.296875 L 42.359375 -28.453125 C 42.359375 -27.234375 42.804688 -26.179688 43.703125 -25.296875 C 44.585938 -24.410156 45.632812 -23.96875 46.84375 -23.96875 L 60.40625 -23.96875 C 60.800781 -23.96875 61.445312 -24.007812 62.34375 -24.09375 C 63.144531 -24.164062 64.070312 -24.488281 65.125 -25.0625 C 66.175781 -25.625 67.304688 -26.507812 68.515625 -27.71875 C 69.722656 -28.925781 70.929688 -30.617188 72.140625 -32.796875 Z M 72.140625 -32.796875 "/></g></g></g><g fill="#d5cec4" fill-opacity="0.4"><g transform="translate(117.138785, 200.401259)"><g><path d="M 91.515625 -101.4375 C 95.867188 -95.789062 99.175781 -89.457031 101.4375 -82.4375 C 103.695312 -75.332031 104.828125 -67.867188 104.828125 -60.046875 C 104.828125 -52.296875 103.695312 -44.867188 101.4375 -37.765625 C 99.175781 -30.660156 95.867188 -24.328125 91.515625 -18.765625 C 86.910156 -12.710938 81.539062 -8.070312 75.40625 -4.84375 C 69.28125 -1.613281 62.828125 0 56.046875 0 C 49.265625 0 42.804688 -1.613281 36.671875 -4.84375 C 30.460938 -8.070312 25.054688 -12.710938 20.453125 -18.765625 C 16.179688 -24.328125 12.914062 -30.660156 10.65625 -37.765625 C 8.394531 -44.867188 7.265625 -52.296875 7.265625 -60.046875 C 7.265625 -67.867188 8.394531 -75.332031 10.65625 -82.4375 C 12.914062 -89.457031 16.179688 -95.789062 20.453125 -101.4375 C 25.054688 -107.488281 30.460938 -112.128906 36.671875 -115.359375 C 42.804688 -118.585938 49.265625 -120.203125 56.046875 -120.203125 C 62.828125 -120.203125 69.28125 -118.585938 75.40625 -115.359375 C 81.539062 -112.128906 86.910156 -107.488281 91.515625 -101.4375 Z M 56.046875 -23.96875 C 59.429688 -23.96875 62.617188 -24.9375 65.609375 -26.875 C 68.597656 -28.8125 71.21875 -31.429688 73.46875 -34.734375 C 75.65625 -37.960938 77.429688 -41.757812 78.796875 -46.125 C 80.085938 -50.476562 80.734375 -55.117188 80.734375 -60.046875 C 80.734375 -64.960938 80.085938 -69.597656 78.796875 -73.953125 C 77.429688 -78.316406 75.65625 -82.148438 73.46875 -85.453125 C 71.21875 -88.765625 68.597656 -91.390625 65.609375 -93.328125 C 62.617188 -95.265625 59.429688 -96.234375 56.046875 -96.234375 C 52.648438 -96.234375 49.460938 -95.265625 46.484375 -93.328125 C 43.492188 -91.390625 40.867188 -88.765625 38.609375 -85.453125 C 36.347656 -82.148438 34.570312 -78.316406 33.28125 -73.953125 C 31.914062 -69.597656 31.234375 -64.960938 31.234375 -60.046875 C 31.234375 -55.117188 31.914062 -50.476562 33.28125 -46.125 C 34.570312 -41.757812 36.347656 -37.960938 38.609375 -34.734375 C 40.867188 -31.429688 43.492188 -28.8125 46.484375 -26.875 C 49.460938 -24.9375 52.648438 -23.96875 56.046875 -23.96875 Z M 56.046875 -23.96875 "/></g></g></g><g fill="#d5cec4" fill-opacity="0.4"><g transform="translate(229.209998, 200.401259)"><g><path d="M 86.546875 -105.796875 C 89.859375 -101.765625 92.398438 -97.203125 94.171875 -92.109375 C 95.867188 -86.953125 96.71875 -81.546875 96.71875 -75.890625 C 96.71875 -70.328125 95.867188 -65.003906 94.171875 -59.921875 C 92.398438 -54.835938 89.859375 -50.273438 86.546875 -46.234375 C 82.671875 -41.554688 78.03125 -38.007812 72.625 -35.59375 C 67.21875 -33.082031 61.328125 -31.828125 54.953125 -31.828125 L 46.96875 -31.828125 C 45.675781 -31.828125 44.585938 -31.382812 43.703125 -30.5 C 42.804688 -29.613281 42.359375 -28.523438 42.359375 -27.234375 L 42.359375 -9.5625 C 42.359375 -7.144531 43.25 -4.96875 45.03125 -3.03125 C 45.507812 -2.382812 45.628906 -1.738281 45.390625 -1.09375 C 45.066406 -0.363281 44.503906 0 43.703125 0 L 16.34375 0 C 15.53125 0 14.960938 -0.363281 14.640625 -1.09375 C 14.316406 -1.738281 14.441406 -2.382812 15.015625 -3.03125 C 17.273438 -5.445312 18.40625 -8.3125 18.40625 -11.625 L 18.40625 -108.703125 C 18.40625 -112.003906 17.273438 -114.867188 15.015625 -117.296875 C 14.441406 -117.941406 14.316406 -118.628906 14.640625 -119.359375 C 14.960938 -120.003906 15.53125 -120.328125 16.34375 -120.328125 L 54.953125 -120.328125 C 61.328125 -120.328125 67.21875 -119.070312 72.625 -116.5625 C 78.03125 -114.0625 82.671875 -110.472656 86.546875 -105.796875 Z M 68.03125 -61.484375 C 69.5625 -63.347656 70.726562 -65.53125 71.53125 -68.03125 C 72.34375 -70.445312 72.75 -73.066406 72.75 -75.890625 C 72.75 -76.460938 72.628906 -77.835938 72.390625 -80.015625 C 72.140625 -82.191406 71.453125 -84.488281 70.328125 -86.90625 C 69.203125 -89.332031 67.46875 -91.515625 65.125 -93.453125 C 62.695312 -95.390625 59.304688 -96.359375 54.953125 -96.359375 L 45.75 -96.359375 C 44.863281 -96.359375 44.097656 -96.035156 43.453125 -95.390625 C 42.722656 -94.660156 42.359375 -93.851562 42.359375 -92.96875 L 42.359375 -59.078125 C 42.359375 -58.179688 42.722656 -57.410156 43.453125 -56.765625 C 44.097656 -56.117188 44.863281 -55.796875 45.75 -55.796875 L 54.953125 -55.796875 C 60.679688 -55.796875 65.039062 -57.691406 68.03125 -61.484375 Z M 68.03125 -61.484375 "/></g></g></g><g fill="#d5cec4" fill-opacity="0.4"><g transform="translate(335.592929, 200.401259)"><g><path d="M 86.546875 -105.796875 C 89.859375 -101.765625 92.398438 -97.203125 94.171875 -92.109375 C 95.867188 -86.953125 96.71875 -81.546875 96.71875 -75.890625 C 96.71875 -70.328125 95.867188 -65.003906 94.171875 -59.921875 C 92.398438 -54.835938 89.859375 -50.273438 86.546875 -46.234375 C 82.671875 -41.554688 78.03125 -38.007812 72.625 -35.59375 C 67.21875 -33.082031 61.328125 -31.828125 54.953125 -31.828125 L 46.96875 -31.828125 C 45.675781 -31.828125 44.585938 -31.382812 43.703125 -30.5 C 42.804688 -29.613281 42.359375 -28.523438 42.359375 -27.234375 L 42.359375 -9.5625 C 42.359375 -7.144531 43.25 -4.96875 45.03125 -3.03125 C 45.507812 -2.382812 45.628906 -1.738281 45.390625 -1.09375 C 45.066406 -0.363281 44.503906 0 43.703125 0 L 16.34375 0 C 15.53125 0 14.960938 -0.363281 14.640625 -1.09375 C 14.316406 -1.738281 14.441406 -2.382812 15.015625 -3.03125 C 17.273438 -5.445312 18.40625 -8.3125 18.40625 -11.625 L 18.40625 -108.703125 C 18.40625 -112.003906 17.273438 -114.867188 15.015625 -117.296875 C 14.441406 -117.941406 14.316406 -118.628906 14.640625 -119.359375 C 14.960938 -120.003906 15.53125 -120.328125 16.34375 -120.328125 L 54.953125 -120.328125 C 61.328125 -120.328125 67.21875 -119.070312 72.625 -116.5625 C 78.03125 -114.0625 82.671875 -110.472656 86.546875 -105.796875 Z M 68.03125 -61.484375 C 69.5625 -63.347656 70.726562 -65.53125 71.53125 -68.03125 C 72.34375 -70.445312 72.75 -73.066406 72.75 -75.890625 C 72.75 -76.460938 72.628906 -77.835938 72.390625 -80.015625 C 72.140625 -82.191406 71.453125 -84.488281 70.328125 -86.90625 C 69.203125 -89.332031 67.46875 -91.515625 65.125 -93.453125 C 62.695312 -95.390625 59.304688 -96.359375 54.953125 -96.359375 L 45.75 -96.359375 C 44.863281 -96.359375 44.097656 -96.035156 43.453125 -95.390625 C 42.722656 -94.660156 42.359375 -93.851562 42.359375 -92.96875 L 42.359375 -59.078125 C 42.359375 -58.179688 42.722656 -57.410156 43.453125 -56.765625 C 44.097656 -56.117188 44.863281 -55.796875 45.75 -55.796875 L 54.953125 -55.796875 C 60.679688 -55.796875 65.039062 -57.691406 68.03125 -61.484375 Z M 68.03125 -61.484375 "/></g></g></g><g fill="#d5cec4" fill-opacity="0.4"><g transform="translate(441.975879, 200.401259)"><g><path d="M 88.125 -122.859375 C 88.769531 -123.421875 89.492188 -123.539062 90.296875 -123.21875 C 91.023438 -122.894531 91.390625 -122.332031 91.390625 -121.53125 L 91.390625 -94.421875 C 91.390625 -93.609375 91.023438 -93.039062 90.296875 -92.71875 C 89.578125 -92.394531 88.929688 -92.515625 88.359375 -93.078125 C 86.179688 -95.097656 83.640625 -96.109375 80.734375 -96.109375 L 45.15625 -96.109375 C 44.34375 -96.109375 43.65625 -95.828125 43.09375 -95.265625 C 42.445312 -94.703125 42.125 -93.972656 42.125 -93.078125 L 42.125 -74.921875 C 42.125 -74.035156 42.445312 -73.3125 43.09375 -72.75 C 43.65625 -72.1875 44.34375 -71.90625 45.15625 -71.90625 L 55.796875 -71.90625 C 58.703125 -71.90625 61.242188 -72.910156 63.421875 -74.921875 C 64.066406 -75.328125 64.753906 -75.367188 65.484375 -75.046875 C 66.128906 -74.640625 66.453125 -74.078125 66.453125 -73.359375 L 66.453125 -46.484375 C 66.453125 -45.753906 66.128906 -45.226562 65.484375 -44.90625 C 64.753906 -44.5 64.066406 -44.5 63.421875 -44.90625 C 61.242188 -46.925781 58.703125 -47.9375 55.796875 -47.9375 L 45.15625 -47.9375 C 44.34375 -47.9375 43.65625 -47.65625 43.09375 -47.09375 C 42.445312 -46.519531 42.125 -45.789062 42.125 -44.90625 L 42.125 -26.75 C 42.125 -25.863281 42.445312 -25.140625 43.09375 -24.578125 C 43.65625 -24.003906 44.34375 -23.71875 45.15625 -23.71875 L 80.734375 -23.71875 C 83.640625 -23.71875 86.179688 -24.726562 88.359375 -26.75 C 88.929688 -27.3125 89.578125 -27.429688 90.296875 -27.109375 C 91.023438 -26.785156 91.390625 -26.222656 91.390625 -25.421875 L 91.390625 1.578125 C 91.390625 2.460938 91.023438 3.066406 90.296875 3.390625 C 89.492188 3.710938 88.769531 3.59375 88.125 3.03125 C 86.101562 1.164062 83.722656 0.234375 80.984375 0.234375 L 16.46875 0.234375 C 15.65625 0.234375 15.085938 -0.125 14.765625 -0.84375 C 14.441406 -1.488281 14.484375 -2.132812 14.890625 -2.78125 L 15.25 -3.140625 C 16.21875 -4.191406 16.945312 -5.40625 17.4375 -6.78125 C 17.914062 -8.070312 18.15625 -9.398438 18.15625 -10.765625 L 18.15625 -109.0625 C 18.15625 -112.050781 17.1875 -114.59375 15.25 -116.6875 L 14.890625 -117.046875 C 14.484375 -117.691406 14.441406 -118.378906 14.765625 -119.109375 C 15.085938 -119.753906 15.65625 -120.078125 16.46875 -120.078125 L 80.984375 -120.078125 C 83.722656 -120.078125 86.101562 -121.003906 88.125 -122.859375 Z M 88.125 -122.859375 "/></g></g></g><g fill="#d5cec4" fill-opacity="0.4"><g transform="translate(547.874667, 200.401259)"><g><path d="M 88 -26.75 C 88.644531 -27.15625 89.289062 -27.195312 89.9375 -26.875 C 90.582031 -26.550781 90.90625 -25.984375 90.90625 -25.171875 L 90.90625 1.578125 C 90.90625 2.378906 90.582031 2.941406 89.9375 3.265625 C 89.289062 3.585938 88.644531 3.546875 88 3.140625 L 86.546875 1.9375 C 85.253906 0.800781 83.800781 0.234375 82.1875 0.234375 L 20.703125 0.234375 C 19.890625 0.234375 19.203125 -0.046875 18.640625 -0.609375 C 18.078125 -1.171875 17.796875 -1.851562 17.796875 -2.65625 L 17.796875 -109.671875 C 17.796875 -112.492188 16.828125 -114.992188 14.890625 -117.171875 C 14.484375 -117.816406 14.441406 -118.460938 14.765625 -119.109375 C 15.085938 -119.753906 15.65625 -120.078125 16.46875 -120.078125 L 43.21875 -120.078125 C 44.019531 -120.078125 44.582031 -119.753906 44.90625 -119.109375 C 45.226562 -118.460938 45.1875 -117.816406 44.78125 -117.171875 L 44.671875 -117.046875 C 42.734375 -114.867188 41.765625 -112.367188 41.765625 -109.546875 L 41.765625 -26.75 C 41.765625 -25.863281 42.046875 -25.175781 42.609375 -24.6875 C 43.171875 -24.125 43.859375 -23.84375 44.671875 -23.84375 L 82.1875 -23.84375 C 83.800781 -23.84375 85.253906 -24.410156 86.546875 -25.546875 Z M 88 -26.75 "/></g></g></g><g fill="#d5cec4" fill-opacity="0.4"><g transform="translate(653.289408, 200.401259)"><g><path d="M 83.890625 -60.640625 C 85.898438 -60.640625 87.59375 -59.957031 88.96875 -58.59375 C 90.34375 -57.132812 91.03125 -55.4375 91.03125 -53.5 L 91.03125 -7.140625 C 91.03125 -5.117188 90.34375 -3.425781 88.96875 -2.0625 C 87.59375 -0.6875 85.898438 0 83.890625 0 L 64.15625 0 C 54.789062 0 46.597656 -1.734375 39.578125 -5.203125 C 32.484375 -8.671875 26.550781 -13.234375 21.78125 -18.890625 C 16.945312 -24.535156 13.316406 -30.945312 10.890625 -38.125 C 8.472656 -45.3125 7.265625 -52.65625 7.265625 -60.15625 C 7.265625 -67.90625 8.472656 -75.289062 10.890625 -82.3125 C 13.234375 -89.25 16.703125 -95.421875 21.296875 -100.828125 C 26.628906 -107.203125 32.925781 -112.046875 40.1875 -115.359375 C 47.363281 -118.671875 55.351562 -120.328125 64.15625 -120.328125 L 75.78125 -120.328125 C 78.519531 -120.328125 80.898438 -121.210938 82.921875 -122.984375 L 83.40625 -123.46875 C 84.050781 -123.875 84.695312 -123.914062 85.34375 -123.59375 C 85.988281 -123.269531 86.3125 -122.703125 86.3125 -121.890625 L 86.3125 -94.78125 C 86.3125 -93.96875 85.988281 -93.441406 85.34375 -93.203125 C 84.613281 -92.878906 83.96875 -93 83.40625 -93.5625 C 81.382812 -95.34375 79.003906 -96.234375 76.265625 -96.234375 L 64.15625 -96.234375 C 53.75 -96.234375 45.597656 -92.679688 39.703125 -85.578125 C 37.035156 -82.265625 34.976562 -78.429688 33.53125 -74.078125 C 32 -69.640625 31.234375 -65 31.234375 -60.15625 C 31.234375 -56.769531 31.753906 -53.019531 32.796875 -48.90625 C 33.765625 -44.707031 35.503906 -40.753906 38.015625 -37.046875 C 40.429688 -33.328125 43.78125 -30.21875 48.0625 -27.71875 C 52.25 -25.21875 57.613281 -23.96875 64.15625 -23.96875 C 65.039062 -23.96875 65.765625 -24.25 66.328125 -24.8125 C 66.816406 -25.375 67.0625 -26.0625 67.0625 -26.875 L 67.0625 -36.3125 C 67.0625 -36.550781 66.976562 -36.671875 66.8125 -36.671875 C 65.363281 -36.671875 64.15625 -36.1875 63.1875 -35.21875 L 61.859375 -33.890625 C 61.210938 -33.484375 60.566406 -33.484375 59.921875 -33.890625 C 59.191406 -34.210938 58.828125 -34.738281 58.828125 -35.46875 L 58.828125 -62.34375 C 58.828125 -63.144531 59.191406 -63.707031 59.921875 -64.03125 C 60.566406 -64.351562 61.210938 -64.3125 61.859375 -63.90625 L 62.34375 -63.421875 C 64.351562 -61.566406 66.734375 -60.640625 69.484375 -60.640625 Z M 83.890625 -60.640625 "/></g></g></g><g fill="#d5cec4" fill-opacity="0.4"><g transform="translate(758.946191, 200.401259)"><g><path d="M 110.15625 -2.171875 C 110.3125 -1.609375 110.226562 -1.125 109.90625 -0.71875 C 109.507812 -0.238281 108.988281 0 108.34375 0 L 80.5 0 C 79.6875 0 79.117188 -0.320312 78.796875 -0.96875 C 78.472656 -1.613281 78.515625 -2.257812 78.921875 -2.90625 L 78.921875 -3.03125 C 80.210938 -4.476562 80.617188 -6.171875 80.140625 -8.109375 L 76.5 -20.703125 C 76.09375 -22.066406 75.367188 -23.15625 74.328125 -23.96875 C 73.273438 -24.695312 72.0625 -25.0625 70.6875 -25.0625 L 46.84375 -25.0625 C 45.46875 -25.0625 44.257812 -24.695312 43.21875 -23.96875 C 42.164062 -23.15625 41.4375 -22.066406 41.03125 -20.703125 L 37.28125 -8.109375 C 36.800781 -6.171875 37.242188 -4.4375 38.609375 -2.90625 C 39.097656 -2.34375 39.222656 -1.738281 38.984375 -1.09375 C 38.660156 -0.363281 38.09375 0 37.28125 0 L 9.203125 0 C 8.554688 0 8.070312 -0.238281 7.75 -0.71875 C 7.34375 -1.125 7.179688 -1.609375 7.265625 -2.171875 C 7.347656 -2.578125 7.550781 -2.941406 7.875 -3.265625 C 10.695312 -5.691406 12.59375 -8.597656 13.5625 -11.984375 L 42.359375 -112.09375 C 43.003906 -114.101562 42.601562 -115.835938 41.15625 -117.296875 C 40.75 -117.941406 40.75 -118.628906 41.15625 -119.359375 C 41.476562 -120.003906 42.003906 -120.328125 42.734375 -120.328125 L 74.6875 -120.328125 C 75.488281 -120.328125 76.050781 -120.003906 76.375 -119.359375 C 76.695312 -118.628906 76.660156 -117.941406 76.265625 -117.296875 C 74.890625 -115.835938 74.484375 -114.101562 75.046875 -112.09375 L 103.984375 -12.109375 C 104.953125 -8.554688 106.804688 -5.609375 109.546875 -3.265625 C 109.953125 -3.023438 110.15625 -2.660156 110.15625 -2.171875 Z M 66.578125 -49.03125 C 66.984375 -49.03125 67.347656 -49.226562 67.671875 -49.625 C 67.910156 -49.945312 67.945312 -50.351562 67.78125 -50.84375 L 60.046875 -77.828125 C 59.878906 -78.472656 59.472656 -78.796875 58.828125 -78.796875 C 58.097656 -78.796875 57.65625 -78.472656 57.5 -77.828125 L 49.625 -50.84375 C 49.46875 -50.351562 49.550781 -49.945312 49.875 -49.625 C 50.195312 -49.226562 50.554688 -49.03125 50.953125 -49.03125 Z M 66.578125 -49.03125 "/></g></g></g><g fill="#d5cec4" fill-opacity="0.4"><g transform="translate(876.463583, 200.401259)"><g><path d="M 112.8125 -3.03125 C 113.21875 -2.382812 113.257812 -1.738281 112.9375 -1.09375 C 112.613281 -0.363281 112.046875 0 111.234375 0 L 82.671875 0 C 81.867188 0 81.304688 -0.363281 80.984375 -1.09375 C 80.660156 -1.738281 80.695312 -2.382812 81.09375 -3.03125 C 82.226562 -4.320312 82.390625 -5.734375 81.578125 -7.265625 L 43.578125 -71.046875 C 43.253906 -71.453125 42.890625 -71.613281 42.484375 -71.53125 C 42.003906 -71.375 41.765625 -71.050781 41.765625 -70.5625 L 41.765625 -10.53125 C 41.765625 -7.707031 42.691406 -5.285156 44.546875 -3.265625 L 44.78125 -3.03125 C 45.1875 -2.382812 45.226562 -1.738281 44.90625 -1.09375 C 44.582031 -0.363281 44.019531 0 43.21875 0 L 16.46875 0 C 15.65625 0 15.085938 -0.363281 14.765625 -1.09375 C 14.441406 -1.738281 14.484375 -2.382812 14.890625 -3.03125 C 16.828125 -5.125 17.796875 -7.539062 17.796875 -10.28125 L 17.796875 -110.03125 C 17.796875 -112.769531 16.828125 -115.191406 14.890625 -117.296875 C 14.484375 -117.941406 14.441406 -118.628906 14.765625 -119.359375 C 15.085938 -120.003906 15.65625 -120.328125 16.46875 -120.328125 L 41.765625 -120.328125 L 41.765625 -120.203125 L 41.765625 -120.328125 L 45.03125 -120.328125 C 45.832031 -120.328125 46.394531 -120.003906 46.71875 -119.359375 C 47.039062 -118.628906 47.003906 -117.941406 46.609375 -117.296875 C 45.390625 -115.921875 45.226562 -114.46875 46.125 -112.9375 L 84 -49.265625 C 84.320312 -48.859375 84.726562 -48.738281 85.21875 -48.90625 C 85.625 -48.988281 85.828125 -49.269531 85.828125 -49.75 L 85.828125 -109.90625 C 85.828125 -112.726562 84.894531 -115.148438 83.03125 -117.171875 L 82.921875 -117.296875 C 82.515625 -117.941406 82.472656 -118.628906 82.796875 -119.359375 C 83.117188 -120.003906 83.679688 -120.328125 84.484375 -120.328125 L 111.234375 -120.328125 C 112.046875 -120.328125 112.613281 -120.003906 112.9375 -119.359375 C 113.257812 -118.628906 113.21875 -117.941406 112.8125 -117.296875 L 112.6875 -117.171875 C 110.832031 -115.148438 109.90625 -112.726562 109.90625 -109.90625 L 109.90625 -10.40625 C 109.90625 -7.582031 110.832031 -5.160156 112.6875 -3.140625 Z M 112.8125 -3.03125 "/></g></g></g><g fill="#d5cec4" fill-opacity="0.4"><g transform="translate(1004.14732, 200.401259)"><g><path d="M 83.890625 -60.640625 C 85.898438 -60.640625 87.59375 -59.957031 88.96875 -58.59375 C 90.34375 -57.132812 91.03125 -55.4375 91.03125 -53.5 L 91.03125 -7.140625 C 91.03125 -5.117188 90.34375 -3.425781 88.96875 -2.0625 C 87.59375 -0.6875 85.898438 0 83.890625 0 L 64.15625 0 C 54.789062 0 46.597656 -1.734375 39.578125 -5.203125 C 32.484375 -8.671875 26.550781 -13.234375 21.78125 -18.890625 C 16.945312 -24.535156 13.316406 -30.945312 10.890625 -38.125 C 8.472656 -45.3125 7.265625 -52.65625 7.265625 -60.15625 C 7.265625 -67.90625 8.472656 -75.289062 10.890625 -82.3125 C 13.234375 -89.25 16.703125 -95.421875 21.296875 -100.828125 C 26.628906 -107.203125 32.925781 -112.046875 40.1875 -115.359375 C 47.363281 -118.671875 55.351562 -120.328125 64.15625 -120.328125 L 75.78125 -120.328125 C 78.519531 -120.328125 80.898438 -121.210938 82.921875 -122.984375 L 83.40625 -123.46875 C 84.050781 -123.875 84.695312 -123.914062 85.34375 -123.59375 C 85.988281 -123.269531 86.3125 -122.703125 86.3125 -121.890625 L 86.3125 -94.78125 C 86.3125 -93.96875 85.988281 -93.441406 85.34375 -93.203125 C 84.613281 -92.878906 83.96875 -93 83.40625 -93.5625 C 81.382812 -95.34375 79.003906 -96.234375 76.265625 -96.234375 L 64.15625 -96.234375 C 53.75 -96.234375 45.597656 -92.679688 39.703125 -85.578125 C 37.035156 -82.265625 34.976562 -78.429688 33.53125 -74.078125 C 32 -69.640625 31.234375 -65 31.234375 -60.15625 C 31.234375 -56.769531 31.753906 -53.019531 32.796875 -48.90625 C 33.765625 -44.707031 35.503906 -40.753906 38.015625 -37.046875 C 40.429688 -33.328125 43.78125 -30.21875 48.0625 -27.71875 C 52.25 -25.21875 57.613281 -23.96875 64.15625 -23.96875 C 65.039062 -23.96875 65.765625 -24.25 66.328125 -24.8125 C 66.816406 -25.375 67.0625 -26.0625 67.0625 -26.875 L 67.0625 -36.3125 C 67.0625 -36.550781 66.976562 -36.671875 66.8125 -36.671875 C 65.363281 -36.671875 64.15625 -36.1875 63.1875 -35.21875 L 61.859375 -33.890625 C 61.210938 -33.484375 60.566406 -33.484375 59.921875 -33.890625 C 59.191406 -34.210938 58.828125 -34.738281 58.828125 -35.46875 L 58.828125 -62.34375 C 58.828125 -63.144531 59.191406 -63.707031 59.921875 -64.03125 C 60.566406 -64.351562 61.210938 -64.3125 61.859375 -63.90625 L 62.34375 -63.421875 C 64.351562 -61.566406 66.734375 -60.640625 69.484375 -60.640625 Z M 83.890625 -60.640625 "/></g></g></g><g fill="#d5cec4" fill-opacity="0.4"><g transform="translate(1109.804064, 200.401259)"><g><path d="M 88.125 -122.859375 C 88.769531 -123.421875 89.492188 -123.539062 90.296875 -123.21875 C 91.023438 -122.894531 91.390625 -122.332031 91.390625 -121.53125 L 91.390625 -94.421875 C 91.390625 -93.609375 91.023438 -93.039062 90.296875 -92.71875 C 89.578125 -92.394531 88.929688 -92.515625 88.359375 -93.078125 C 86.179688 -95.097656 83.640625 -96.109375 80.734375 -96.109375 L 45.15625 -96.109375 C 44.34375 -96.109375 43.65625 -95.828125 43.09375 -95.265625 C 42.445312 -94.703125 42.125 -93.972656 42.125 -93.078125 L 42.125 -74.921875 C 42.125 -74.035156 42.445312 -73.3125 43.09375 -72.75 C 43.65625 -72.1875 44.34375 -71.90625 45.15625 -71.90625 L 55.796875 -71.90625 C 58.703125 -71.90625 61.242188 -72.910156 63.421875 -74.921875 C 64.066406 -75.328125 64.753906 -75.367188 65.484375 -75.046875 C 66.128906 -74.640625 66.453125 -74.078125 66.453125 -73.359375 L 66.453125 -46.484375 C 66.453125 -45.753906 66.128906 -45.226562 65.484375 -44.90625 C 64.753906 -44.5 64.066406 -44.5 63.421875 -44.90625 C 61.242188 -46.925781 58.703125 -47.9375 55.796875 -47.9375 L 45.15625 -47.9375 C 44.34375 -47.9375 43.65625 -47.65625 43.09375 -47.09375 C 42.445312 -46.519531 42.125 -45.789062 42.125 -44.90625 L 42.125 -26.75 C 42.125 -25.863281 42.445312 -25.140625 43.09375 -24.578125 C 43.65625 -24.003906 44.34375 -23.71875 45.15625 -23.71875 L 80.734375 -23.71875 C 83.640625 -23.71875 86.179688 -24.726562 88.359375 -26.75 C 88.929688 -27.3125 89.578125 -27.429688 90.296875 -27.109375 C 91.023438 -26.785156 91.390625 -26.222656 91.390625 -25.421875 L 91.390625 1.578125 C 91.390625 2.460938 91.023438 3.066406 90.296875 3.390625 C 89.492188 3.710938 88.769531 3.59375 88.125 3.03125 C 86.101562 1.164062 83.722656 0.234375 80.984375 0.234375 L 16.46875 0.234375 C 15.65625 0.234375 15.085938 -0.125 14.765625 -0.84375 C 14.441406 -1.488281 14.484375 -2.132812 14.890625 -2.78125 L 15.25 -3.140625 C 16.21875 -4.191406 16.945312 -5.40625 17.4375 -6.78125 C 17.914062 -8.070312 18.15625 -9.398438 18.15625 -10.765625 L 18.15625 -109.0625 C 18.15625 -112.050781 17.1875 -114.59375 15.25 -116.6875 L 14.890625 -117.046875 C 14.484375 -117.691406 14.441406 -118.378906 14.765625 -119.109375 C 15.085938 -119.753906 15.65625 -120.078125 16.46875 -120.078125 L 80.984375 -120.078125 C 83.722656 -120.078125 86.101562 -121.003906 88.125 -122.859375 Z M 88.125 -122.859375 "/></g></g></g><g fill="#d5cec4" fill-opacity="0.4"><g transform="translate(1215.70293, 200.401259)"><g><path d="M 99.015625 -3.03125 C 99.742188 -2.457031 100.023438 -1.8125 99.859375 -1.09375 C 99.617188 -0.363281 99.054688 0 98.171875 0 L 67.546875 0 C 66.734375 0 66.164062 -0.363281 65.84375 -1.09375 C 65.519531 -1.738281 65.5625 -2.382812 65.96875 -3.03125 L 66.09375 -3.140625 C 66.894531 -4.109375 66.972656 -5.117188 66.328125 -6.171875 L 51.4375 -30.140625 C 50.71875 -31.265625 49.710938 -31.828125 48.421875 -31.828125 L 45.515625 -31.828125 C 44.546875 -31.828125 43.738281 -31.503906 43.09375 -30.859375 C 42.363281 -30.140625 42 -29.253906 42 -28.203125 L 42 -10.53125 C 42 -7.707031 43.007812 -5.207031 45.03125 -3.03125 C 45.507812 -2.382812 45.628906 -1.738281 45.390625 -1.09375 C 45.066406 -0.363281 44.503906 0 43.703125 0 L 16.578125 0 C 15.691406 0 15.085938 -0.363281 14.765625 -1.09375 C 14.441406 -1.8125 14.601562 -2.492188 15.25 -3.140625 C 17.101562 -5.242188 18.03125 -7.664062 18.03125 -10.40625 L 18.03125 -109.671875 C 18.03125 -112.578125 17.023438 -115.117188 15.015625 -117.296875 C 14.441406 -117.941406 14.316406 -118.628906 14.640625 -119.359375 C 14.960938 -120.003906 15.53125 -120.328125 16.34375 -120.328125 L 54.59375 -120.328125 C 60.96875 -120.328125 66.859375 -119.070312 72.265625 -116.5625 C 77.671875 -114.0625 82.3125 -110.472656 86.1875 -105.796875 C 89.488281 -101.765625 92.03125 -97.203125 93.8125 -92.109375 C 95.507812 -86.953125 96.359375 -81.546875 96.359375 -75.890625 C 96.359375 -70.328125 95.507812 -65.003906 93.8125 -59.921875 C 92.03125 -54.835938 89.488281 -50.273438 86.1875 -46.234375 C 84.007812 -43.492188 81.382812 -41.035156 78.3125 -38.859375 C 77.507812 -38.296875 77.023438 -37.566406 76.859375 -36.671875 C 76.617188 -35.785156 76.742188 -34.941406 77.234375 -34.140625 L 92.234375 -10.171875 C 93.609375 -7.992188 95.265625 -6.097656 97.203125 -4.484375 Z M 67.671875 -61.484375 C 69.203125 -63.347656 70.367188 -65.53125 71.171875 -68.03125 C 71.984375 -70.445312 72.390625 -73.066406 72.390625 -75.890625 C 72.390625 -76.460938 72.265625 -77.835938 72.015625 -80.015625 C 71.773438 -82.191406 71.09375 -84.488281 69.96875 -86.90625 C 68.832031 -89.332031 67.097656 -91.515625 64.765625 -93.453125 C 62.335938 -95.390625 58.945312 -96.359375 54.59375 -96.359375 L 45.515625 -96.359375 C 44.546875 -96.359375 43.738281 -96.035156 43.09375 -95.390625 C 42.363281 -94.660156 42 -93.769531 42 -92.71875 L 42 -59.3125 C 42 -58.34375 42.363281 -57.535156 43.09375 -56.890625 C 43.738281 -56.160156 44.546875 -55.796875 45.515625 -55.796875 L 54.59375 -55.796875 C 60.320312 -55.796875 64.679688 -57.691406 67.671875 -61.484375 Z M 67.671875 -61.484375 "/></g></g></g><g fill="#d5cec4" fill-opacity="1"><g transform="translate(1.350852, 196.442469)"><g><path d="M 93.203125 -98.890625 C 96.023438 -93.648438 98.242188 -87.71875 99.859375 -81.09375 C 101.390625 -74.394531 102.15625 -67.378906 102.15625 -60.046875 C 102.15625 -52.703125 101.390625 -45.71875 99.859375 -39.09375 C 98.242188 -32.394531 96.023438 -26.425781 93.203125 -21.1875 C 89.410156 -14.320312 84.734375 -9.078125 79.171875 -5.453125 C 73.515625 -1.816406 67.257812 0 60.40625 0 L 16.34375 0 C 15.53125 0 14.960938 -0.363281 14.640625 -1.09375 C 14.316406 -1.738281 14.441406 -2.34375 15.015625 -2.90625 C 17.273438 -5.40625 18.40625 -8.269531 18.40625 -11.5 L 18.40625 -108.703125 C 18.40625 -112.003906 17.273438 -114.867188 15.015625 -117.296875 C 14.441406 -117.859375 14.316406 -118.503906 14.640625 -119.234375 C 14.960938 -119.960938 15.53125 -120.328125 16.34375 -120.328125 L 60.40625 -120.328125 C 67.257812 -120.328125 73.472656 -118.507812 79.046875 -114.875 C 84.609375 -111.164062 89.328125 -105.835938 93.203125 -98.890625 Z M 72.140625 -32.796875 C 74.078125 -36.191406 75.570312 -40.269531 76.625 -45.03125 C 77.675781 -49.707031 78.203125 -54.710938 78.203125 -60.046875 C 78.203125 -64.484375 77.796875 -68.878906 76.984375 -73.234375 C 76.179688 -77.515625 75.007812 -81.390625 73.46875 -84.859375 C 71.9375 -88.242188 70.082031 -90.984375 67.90625 -93.078125 C 65.644531 -95.179688 63.144531 -96.234375 60.40625 -96.234375 L 48.421875 -96.234375 C 46.722656 -96.234375 45.3125 -95.664062 44.1875 -94.53125 C 42.96875 -93.320312 42.359375 -91.910156 42.359375 -90.296875 L 42.359375 -28.453125 C 42.359375 -27.234375 42.804688 -26.179688 43.703125 -25.296875 C 44.585938 -24.410156 45.632812 -23.96875 46.84375 -23.96875 L 60.40625 -23.96875 C 60.800781 -23.96875 61.445312 -24.007812 62.34375 -24.09375 C 63.144531 -24.164062 64.070312 -24.488281 65.125 -25.0625 C 66.175781 -25.625 67.304688 -26.507812 68.515625 -27.71875 C 69.722656 -28.925781 70.929688 -30.617188 72.140625 -32.796875 Z M 72.140625 -32.796875 "/></g></g></g><g fill="#d5cec4" fill-opacity="1"><g transform="translate(113.180002, 196.442469)"><g><path d="M 91.515625 -101.4375 C 95.867188 -95.789062 99.175781 -89.457031 101.4375 -82.4375 C 103.695312 -75.332031 104.828125 -67.867188 104.828125 -60.046875 C 104.828125 -52.296875 103.695312 -44.867188 101.4375 -37.765625 C 99.175781 -30.660156 95.867188 -24.328125 91.515625 -18.765625 C 86.910156 -12.710938 81.539062 -8.070312 75.40625 -4.84375 C 69.28125 -1.613281 62.828125 0 56.046875 0 C 49.265625 0 42.804688 -1.613281 36.671875 -4.84375 C 30.460938 -8.070312 25.054688 -12.710938 20.453125 -18.765625 C 16.179688 -24.328125 12.914062 -30.660156 10.65625 -37.765625 C 8.394531 -44.867188 7.265625 -52.296875 7.265625 -60.046875 C 7.265625 -67.867188 8.394531 -75.332031 10.65625 -82.4375 C 12.914062 -89.457031 16.179688 -95.789062 20.453125 -101.4375 C 25.054688 -107.488281 30.460938 -112.128906 36.671875 -115.359375 C 42.804688 -118.585938 49.265625 -120.203125 56.046875 -120.203125 C 62.828125 -120.203125 69.28125 -118.585938 75.40625 -115.359375 C 81.539062 -112.128906 86.910156 -107.488281 91.515625 -101.4375 Z M 56.046875 -23.96875 C 59.429688 -23.96875 62.617188 -24.9375 65.609375 -26.875 C 68.597656 -28.8125 71.21875 -31.429688 73.46875 -34.734375 C 75.65625 -37.960938 77.429688 -41.757812 78.796875 -46.125 C 80.085938 -50.476562 80.734375 -55.117188 80.734375 -60.046875 C 80.734375 -64.960938 80.085938 -69.597656 78.796875 -73.953125 C 77.429688 -78.316406 75.65625 -82.148438 73.46875 -85.453125 C 71.21875 -88.765625 68.597656 -91.390625 65.609375 -93.328125 C 62.617188 -95.265625 59.429688 -96.234375 56.046875 -96.234375 C 52.648438 -96.234375 49.460938 -95.265625 46.484375 -93.328125 C 43.492188 -91.390625 40.867188 -88.765625 38.609375 -85.453125 C 36.347656 -82.148438 34.570312 -78.316406 33.28125 -73.953125 C 31.914062 -69.597656 31.234375 -64.960938 31.234375 -60.046875 C 31.234375 -55.117188 31.914062 -50.476562 33.28125 -46.125 C 34.570312 -41.757812 36.347656 -37.960938 38.609375 -34.734375 C 40.867188 -31.429688 43.492188 -28.8125 46.484375 -26.875 C 49.460938 -24.9375 52.648438 -23.96875 56.046875 -23.96875 Z M 56.046875 -23.96875 "/></g></g></g><g fill="#d5cec4" fill-opacity="1"><g transform="translate(225.251215, 196.442469)"><g><path d="M 86.546875 -105.796875 C 89.859375 -101.765625 92.398438 -97.203125 94.171875 -92.109375 C 95.867188 -86.953125 96.71875 -81.546875 96.71875 -75.890625 C 96.71875 -70.328125 95.867188 -65.003906 94.171875 -59.921875 C 92.398438 -54.835938 89.859375 -50.273438 86.546875 -46.234375 C 82.671875 -41.554688 78.03125 -38.007812 72.625 -35.59375 C 67.21875 -33.082031 61.328125 -31.828125 54.953125 -31.828125 L 46.96875 -31.828125 C 45.675781 -31.828125 44.585938 -31.382812 43.703125 -30.5 C 42.804688 -29.613281 42.359375 -28.523438 42.359375 -27.234375 L 42.359375 -9.5625 C 42.359375 -7.144531 43.25 -4.96875 45.03125 -3.03125 C 45.507812 -2.382812 45.628906 -1.738281 45.390625 -1.09375 C 45.066406 -0.363281 44.503906 0 43.703125 0 L 16.34375 0 C 15.53125 0 14.960938 -0.363281 14.640625 -1.09375 C 14.316406 -1.738281 14.441406 -2.382812 15.015625 -3.03125 C 17.273438 -5.445312 18.40625 -8.3125 18.40625 -11.625 L 18.40625 -108.703125 C 18.40625 -112.003906 17.273438 -114.867188 15.015625 -117.296875 C 14.441406 -117.941406 14.316406 -118.628906 14.640625 -119.359375 C 14.960938 -120.003906 15.53125 -120.328125 16.34375 -120.328125 L 54.953125 -120.328125 C 61.328125 -120.328125 67.21875 -119.070312 72.625 -116.5625 C 78.03125 -114.0625 82.671875 -110.472656 86.546875 -105.796875 Z M 68.03125 -61.484375 C 69.5625 -63.347656 70.726562 -65.53125 71.53125 -68.03125 C 72.34375 -70.445312 72.75 -73.066406 72.75 -75.890625 C 72.75 -76.460938 72.628906 -77.835938 72.390625 -80.015625 C 72.140625 -82.191406 71.453125 -84.488281 70.328125 -86.90625 C 69.203125 -89.332031 67.46875 -91.515625 65.125 -93.453125 C 62.695312 -95.390625 59.304688 -96.359375 54.953125 -96.359375 L 45.75 -96.359375 C 44.863281 -96.359375 44.097656 -96.035156 43.453125 -95.390625 C 42.722656 -94.660156 42.359375 -93.851562 42.359375 -92.96875 L 42.359375 -59.078125 C 42.359375 -58.179688 42.722656 -57.410156 43.453125 -56.765625 C 44.097656 -56.117188 44.863281 -55.796875 45.75 -55.796875 L 54.953125 -55.796875 C 60.679688 -55.796875 65.039062 -57.691406 68.03125 -61.484375 Z M 68.03125 -61.484375 "/></g></g></g><g fill="#d5cec4" fill-opacity="1"><g transform="translate(331.634146, 196.442469)"><g><path d="M 86.546875 -105.796875 C 89.859375 -101.765625 92.398438 -97.203125 94.171875 -92.109375 C 95.867188 -86.953125 96.71875 -81.546875 96.71875 -75.890625 C 96.71875 -70.328125 95.867188 -65.003906 94.171875 -59.921875 C 92.398438 -54.835938 89.859375 -50.273438 86.546875 -46.234375 C 82.671875 -41.554688 78.03125 -38.007812 72.625 -35.59375 C 67.21875 -33.082031 61.328125 -31.828125 54.953125 -31.828125 L 46.96875 -31.828125 C 45.675781 -31.828125 44.585938 -31.382812 43.703125 -30.5 C 42.804688 -29.613281 42.359375 -28.523438 42.359375 -27.234375 L 42.359375 -9.5625 C 42.359375 -7.144531 43.25 -4.96875 45.03125 -3.03125 C 45.507812 -2.382812 45.628906 -1.738281 45.390625 -1.09375 C 45.066406 -0.363281 44.503906 0 43.703125 0 L 16.34375 0 C 15.53125 0 14.960938 -0.363281 14.640625 -1.09375 C 14.316406 -1.738281 14.441406 -2.382812 15.015625 -3.03125 C 17.273438 -5.445312 18.40625 -8.3125 18.40625 -11.625 L 18.40625 -108.703125 C 18.40625 -112.003906 17.273438 -114.867188 15.015625 -117.296875 C 14.441406 -117.941406 14.316406 -118.628906 14.640625 -119.359375 C 14.960938 -120.003906 15.53125 -120.328125 16.34375 -120.328125 L 54.953125 -120.328125 C 61.328125 -120.328125 67.21875 -119.070312 72.625 -116.5625 C 78.03125 -114.0625 82.671875 -110.472656 86.546875 -105.796875 Z M 68.03125 -61.484375 C 69.5625 -63.347656 70.726562 -65.53125 71.53125 -68.03125 C 72.34375 -70.445312 72.75 -73.066406 72.75 -75.890625 C 72.75 -76.460938 72.628906 -77.835938 72.390625 -80.015625 C 72.140625 -82.191406 71.453125 -84.488281 70.328125 -86.90625 C 69.203125 -89.332031 67.46875 -91.515625 65.125 -93.453125 C 62.695312 -95.390625 59.304688 -96.359375 54.953125 -96.359375 L 45.75 -96.359375 C 44.863281 -96.359375 44.097656 -96.035156 43.453125 -95.390625 C 42.722656 -94.660156 42.359375 -93.851562 42.359375 -92.96875 L 42.359375 -59.078125 C 42.359375 -58.179688 42.722656 -57.410156 43.453125 -56.765625 C 44.097656 -56.117188 44.863281 -55.796875 45.75 -55.796875 L 54.953125 -55.796875 C 60.679688 -55.796875 65.039062 -57.691406 68.03125 -61.484375 Z M 68.03125 -61.484375 "/></g></g></g><g fill="#d5cec4" fill-opacity="1"><g transform="translate(438.017097, 196.442469)"><g><path d="M 88.125 -122.859375 C 88.769531 -123.421875 89.492188 -123.539062 90.296875 -123.21875 C 91.023438 -122.894531 91.390625 -122.332031 91.390625 -121.53125 L 91.390625 -94.421875 C 91.390625 -93.609375 91.023438 -93.039062 90.296875 -92.71875 C 89.578125 -92.394531 88.929688 -92.515625 88.359375 -93.078125 C 86.179688 -95.097656 83.640625 -96.109375 80.734375 -96.109375 L 45.15625 -96.109375 C 44.34375 -96.109375 43.65625 -95.828125 43.09375 -95.265625 C 42.445312 -94.703125 42.125 -93.972656 42.125 -93.078125 L 42.125 -74.921875 C 42.125 -74.035156 42.445312 -73.3125 43.09375 -72.75 C 43.65625 -72.1875 44.34375 -71.90625 45.15625 -71.90625 L 55.796875 -71.90625 C 58.703125 -71.90625 61.242188 -72.910156 63.421875 -74.921875 C 64.066406 -75.328125 64.753906 -75.367188 65.484375 -75.046875 C 66.128906 -74.640625 66.453125 -74.078125 66.453125 -73.359375 L 66.453125 -46.484375 C 66.453125 -45.753906 66.128906 -45.226562 65.484375 -44.90625 C 64.753906 -44.5 64.066406 -44.5 63.421875 -44.90625 C 61.242188 -46.925781 58.703125 -47.9375 55.796875 -47.9375 L 45.15625 -47.9375 C 44.34375 -47.9375 43.65625 -47.65625 43.09375 -47.09375 C 42.445312 -46.519531 42.125 -45.789062 42.125 -44.90625 L 42.125 -26.75 C 42.125 -25.863281 42.445312 -25.140625 43.09375 -24.578125 C 43.65625 -24.003906 44.34375 -23.71875 45.15625 -23.71875 L 80.734375 -23.71875 C 83.640625 -23.71875 86.179688 -24.726562 88.359375 -26.75 C 88.929688 -27.3125 89.578125 -27.429688 90.296875 -27.109375 C 91.023438 -26.785156 91.390625 -26.222656 91.390625 -25.421875 L 91.390625 1.578125 C 91.390625 2.460938 91.023438 3.066406 90.296875 3.390625 C 89.492188 3.710938 88.769531 3.59375 88.125 3.03125 C 86.101562 1.164062 83.722656 0.234375 80.984375 0.234375 L 16.46875 0.234375 C 15.65625 0.234375 15.085938 -0.125 14.765625 -0.84375 C 14.441406 -1.488281 14.484375 -2.132812 14.890625 -2.78125 L 15.25 -3.140625 C 16.21875 -4.191406 16.945312 -5.40625 17.4375 -6.78125 C 17.914062 -8.070312 18.15625 -9.398438 18.15625 -10.765625 L 18.15625 -109.0625 C 18.15625 -112.050781 17.1875 -114.59375 15.25 -116.6875 L 14.890625 -117.046875 C 14.484375 -117.691406 14.441406 -118.378906 14.765625 -119.109375 C 15.085938 -119.753906 15.65625 -120.078125 16.46875 -120.078125 L 80.984375 -120.078125 C 83.722656 -120.078125 86.101562 -121.003906 88.125 -122.859375 Z M 88.125 -122.859375 "/></g></g></g><g fill="#d5cec4" fill-opacity="1"><g transform="translate(543.915884, 196.442469)"><g><path d="M 88 -26.75 C 88.644531 -27.15625 89.289062 -27.195312 89.9375 -26.875 C 90.582031 -26.550781 90.90625 -25.984375 90.90625 -25.171875 L 90.90625 1.578125 C 90.90625 2.378906 90.582031 2.941406 89.9375 3.265625 C 89.289062 3.585938 88.644531 3.546875 88 3.140625 L 86.546875 1.9375 C 85.253906 0.800781 83.800781 0.234375 82.1875 0.234375 L 20.703125 0.234375 C 19.890625 0.234375 19.203125 -0.046875 18.640625 -0.609375 C 18.078125 -1.171875 17.796875 -1.851562 17.796875 -2.65625 L 17.796875 -109.671875 C 17.796875 -112.492188 16.828125 -114.992188 14.890625 -117.171875 C 14.484375 -117.816406 14.441406 -118.460938 14.765625 -119.109375 C 15.085938 -119.753906 15.65625 -120.078125 16.46875 -120.078125 L 43.21875 -120.078125 C 44.019531 -120.078125 44.582031 -119.753906 44.90625 -119.109375 C 45.226562 -118.460938 45.1875 -117.816406 44.78125 -117.171875 L 44.671875 -117.046875 C 42.734375 -114.867188 41.765625 -112.367188 41.765625 -109.546875 L 41.765625 -26.75 C 41.765625 -25.863281 42.046875 -25.175781 42.609375 -24.6875 C 43.171875 -24.125 43.859375 -23.84375 44.671875 -23.84375 L 82.1875 -23.84375 C 83.800781 -23.84375 85.253906 -24.410156 86.546875 -25.546875 Z M 88 -26.75 "/></g></g></g><g fill="#d5cec4" fill-opacity="1"><g transform="translate(649.330625, 196.442469)"><g><path d="M 83.890625 -60.640625 C 85.898438 -60.640625 87.59375 -59.957031 88.96875 -58.59375 C 90.34375 -57.132812 91.03125 -55.4375 91.03125 -53.5 L 91.03125 -7.140625 C 91.03125 -5.117188 90.34375 -3.425781 88.96875 -2.0625 C 87.59375 -0.6875 85.898438 0 83.890625 0 L 64.15625 0 C 54.789062 0 46.597656 -1.734375 39.578125 -5.203125 C 32.484375 -8.671875 26.550781 -13.234375 21.78125 -18.890625 C 16.945312 -24.535156 13.316406 -30.945312 10.890625 -38.125 C 8.472656 -45.3125 7.265625 -52.65625 7.265625 -60.15625 C 7.265625 -67.90625 8.472656 -75.289062 10.890625 -82.3125 C 13.234375 -89.25 16.703125 -95.421875 21.296875 -100.828125 C 26.628906 -107.203125 32.925781 -112.046875 40.1875 -115.359375 C 47.363281 -118.671875 55.351562 -120.328125 64.15625 -120.328125 L 75.78125 -120.328125 C 78.519531 -120.328125 80.898438 -121.210938 82.921875 -122.984375 L 83.40625 -123.46875 C 84.050781 -123.875 84.695312 -123.914062 85.34375 -123.59375 C 85.988281 -123.269531 86.3125 -122.703125 86.3125 -121.890625 L 86.3125 -94.78125 C 86.3125 -93.96875 85.988281 -93.441406 85.34375 -93.203125 C 84.613281 -92.878906 83.96875 -93 83.40625 -93.5625 C 81.382812 -95.34375 79.003906 -96.234375 76.265625 -96.234375 L 64.15625 -96.234375 C 53.75 -96.234375 45.597656 -92.679688 39.703125 -85.578125 C 37.035156 -82.265625 34.976562 -78.429688 33.53125 -74.078125 C 32 -69.640625 31.234375 -65 31.234375 -60.15625 C 31.234375 -56.769531 31.753906 -53.019531 32.796875 -48.90625 C 33.765625 -44.707031 35.503906 -40.753906 38.015625 -37.046875 C 40.429688 -33.328125 43.78125 -30.21875 48.0625 -27.71875 C 52.25 -25.21875 57.613281 -23.96875 64.15625 -23.96875 C 65.039062 -23.96875 65.765625 -24.25 66.328125 -24.8125 C 66.816406 -25.375 67.0625 -26.0625 67.0625 -26.875 L 67.0625 -36.3125 C 67.0625 -36.550781 66.976562 -36.671875 66.8125 -36.671875 C 65.363281 -36.671875 64.15625 -36.1875 63.1875 -35.21875 L 61.859375 -33.890625 C 61.210938 -33.484375 60.566406 -33.484375 59.921875 -33.890625 C 59.191406 -34.210938 58.828125 -34.738281 58.828125 -35.46875 L 58.828125 -62.34375 C 58.828125 -63.144531 59.191406 -63.707031 59.921875 -64.03125 C 60.566406 -64.351562 61.210938 -64.3125 61.859375 -63.90625 L 62.34375 -63.421875 C 64.351562 -61.566406 66.734375 -60.640625 69.484375 -60.640625 Z M 83.890625 -60.640625 "/></g></g></g><g fill="#d5cec4" fill-opacity="1"><g transform="translate(754.987408, 196.442469)"><g><path d="M 110.15625 -2.171875 C 110.3125 -1.609375 110.226562 -1.125 109.90625 -0.71875 C 109.507812 -0.238281 108.988281 0 108.34375 0 L 80.5 0 C 79.6875 0 79.117188 -0.320312 78.796875 -0.96875 C 78.472656 -1.613281 78.515625 -2.257812 78.921875 -2.90625 L 78.921875 -3.03125 C 80.210938 -4.476562 80.617188 -6.171875 80.140625 -8.109375 L 76.5 -20.703125 C 76.09375 -22.066406 75.367188 -23.15625 74.328125 -23.96875 C 73.273438 -24.695312 72.0625 -25.0625 70.6875 -25.0625 L 46.84375 -25.0625 C 45.46875 -25.0625 44.257812 -24.695312 43.21875 -23.96875 C 42.164062 -23.15625 41.4375 -22.066406 41.03125 -20.703125 L 37.28125 -8.109375 C 36.800781 -6.171875 37.242188 -4.4375 38.609375 -2.90625 C 39.097656 -2.34375 39.222656 -1.738281 38.984375 -1.09375 C 38.660156 -0.363281 38.09375 0 37.28125 0 L 9.203125 0 C 8.554688 0 8.070312 -0.238281 7.75 -0.71875 C 7.34375 -1.125 7.179688 -1.609375 7.265625 -2.171875 C 7.347656 -2.578125 7.550781 -2.941406 7.875 -3.265625 C 10.695312 -5.691406 12.59375 -8.597656 13.5625 -11.984375 L 42.359375 -112.09375 C 43.003906 -114.101562 42.601562 -115.835938 41.15625 -117.296875 C 40.75 -117.941406 40.75 -118.628906 41.15625 -119.359375 C 41.476562 -120.003906 42.003906 -120.328125 42.734375 -120.328125 L 74.6875 -120.328125 C 75.488281 -120.328125 76.050781 -120.003906 76.375 -119.359375 C 76.695312 -118.628906 76.660156 -117.941406 76.265625 -117.296875 C 74.890625 -115.835938 74.484375 -114.101562 75.046875 -112.09375 L 103.984375 -12.109375 C 104.953125 -8.554688 106.804688 -5.609375 109.546875 -3.265625 C 109.953125 -3.023438 110.15625 -2.660156 110.15625 -2.171875 Z M 66.578125 -49.03125 C 66.984375 -49.03125 67.347656 -49.226562 67.671875 -49.625 C 67.910156 -49.945312 67.945312 -50.351562 67.78125 -50.84375 L 60.046875 -77.828125 C 59.878906 -78.472656 59.472656 -78.796875 58.828125 -78.796875 C 58.097656 -78.796875 57.65625 -78.472656 57.5 -77.828125 L 49.625 -50.84375 C 49.46875 -50.351562 49.550781 -49.945312 49.875 -49.625 C 50.195312 -49.226562 50.554688 -49.03125 50.953125 -49.03125 Z M 66.578125 -49.03125 "/></g></g></g><g fill="#d5cec4" fill-opacity="1"><g transform="translate(872.5048, 196.442469)"><g><path d="M 112.8125 -3.03125 C 113.21875 -2.382812 113.257812 -1.738281 112.9375 -1.09375 C 112.613281 -0.363281 112.046875 0 111.234375 0 L 82.671875 0 C 81.867188 0 81.304688 -0.363281 80.984375 -1.09375 C 80.660156 -1.738281 80.695312 -2.382812 81.09375 -3.03125 C 82.226562 -4.320312 82.390625 -5.734375 81.578125 -7.265625 L 43.578125 -71.046875 C 43.253906 -71.453125 42.890625 -71.613281 42.484375 -71.53125 C 42.003906 -71.375 41.765625 -71.050781 41.765625 -70.5625 L 41.765625 -10.53125 C 41.765625 -7.707031 42.691406 -5.285156 44.546875 -3.265625 L 44.78125 -3.03125 C 45.1875 -2.382812 45.226562 -1.738281 44.90625 -1.09375 C 44.582031 -0.363281 44.019531 0 43.21875 0 L 16.46875 0 C 15.65625 0 15.085938 -0.363281 14.765625 -1.09375 C 14.441406 -1.738281 14.484375 -2.382812 14.890625 -3.03125 C 16.828125 -5.125 17.796875 -7.539062 17.796875 -10.28125 L 17.796875 -110.03125 C 17.796875 -112.769531 16.828125 -115.191406 14.890625 -117.296875 C 14.484375 -117.941406 14.441406 -118.628906 14.765625 -119.359375 C 15.085938 -120.003906 15.65625 -120.328125 16.46875 -120.328125 L 41.765625 -120.328125 L 41.765625 -120.203125 L 41.765625 -120.328125 L 45.03125 -120.328125 C 45.832031 -120.328125 46.394531 -120.003906 46.71875 -119.359375 C 47.039062 -118.628906 47.003906 -117.941406 46.609375 -117.296875 C 45.390625 -115.921875 45.226562 -114.46875 46.125 -112.9375 L 84 -49.265625 C 84.320312 -48.859375 84.726562 -48.738281 85.21875 -48.90625 C 85.625 -48.988281 85.828125 -49.269531 85.828125 -49.75 L 85.828125 -109.90625 C 85.828125 -112.726562 84.894531 -115.148438 83.03125 -117.171875 L 82.921875 -117.296875 C 82.515625 -117.941406 82.472656 -118.628906 82.796875 -119.359375 C 83.117188 -120.003906 83.679688 -120.328125 84.484375 -120.328125 L 111.234375 -120.328125 C 112.046875 -120.328125 112.613281 -120.003906 112.9375 -119.359375 C 113.257812 -118.628906 113.21875 -117.941406 112.8125 -117.296875 L 112.6875 -117.171875 C 110.832031 -115.148438 109.90625 -112.726562 109.90625 -109.90625 L 109.90625 -10.40625 C 109.90625 -7.582031 110.832031 -5.160156 112.6875 -3.140625 Z M 112.8125 -3.03125 "/></g></g></g><g fill="#d5cec4" fill-opacity="1"><g transform="translate(1000.188537, 196.442469)"><g><path d="M 83.890625 -60.640625 C 85.898438 -60.640625 87.59375 -59.957031 88.96875 -58.59375 C 90.34375 -57.132812 91.03125 -55.4375 91.03125 -53.5 L 91.03125 -7.140625 C 91.03125 -5.117188 90.34375 -3.425781 88.96875 -2.0625 C 87.59375 -0.6875 85.898438 0 83.890625 0 L 64.15625 0 C 54.789062 0 46.597656 -1.734375 39.578125 -5.203125 C 32.484375 -8.671875 26.550781 -13.234375 21.78125 -18.890625 C 16.945312 -24.535156 13.316406 -30.945312 10.890625 -38.125 C 8.472656 -45.3125 7.265625 -52.65625 7.265625 -60.15625 C 7.265625 -67.90625 8.472656 -75.289062 10.890625 -82.3125 C 13.234375 -89.25 16.703125 -95.421875 21.296875 -100.828125 C 26.628906 -107.203125 32.925781 -112.046875 40.1875 -115.359375 C 47.363281 -118.671875 55.351562 -120.328125 64.15625 -120.328125 L 75.78125 -120.328125 C 78.519531 -120.328125 80.898438 -121.210938 82.921875 -122.984375 L 83.40625 -123.46875 C 84.050781 -123.875 84.695312 -123.914062 85.34375 -123.59375 C 85.988281 -123.269531 86.3125 -122.703125 86.3125 -121.890625 L 86.3125 -94.78125 C 86.3125 -93.96875 85.988281 -93.441406 85.34375 -93.203125 C 84.613281 -92.878906 83.96875 -93 83.40625 -93.5625 C 81.382812 -95.34375 79.003906 -96.234375 76.265625 -96.234375 L 64.15625 -96.234375 C 53.75 -96.234375 45.597656 -92.679688 39.703125 -85.578125 C 37.035156 -82.265625 34.976562 -78.429688 33.53125 -74.078125 C 32 -69.640625 31.234375 -65 31.234375 -60.15625 C 31.234375 -56.769531 31.753906 -53.019531 32.796875 -48.90625 C 33.765625 -44.707031 35.503906 -40.753906 38.015625 -37.046875 C 40.429688 -33.328125 43.78125 -30.21875 48.0625 -27.71875 C 52.25 -25.21875 57.613281 -23.96875 64.15625 -23.96875 C 65.039062 -23.96875 65.765625 -24.25 66.328125 -24.8125 C 66.816406 -25.375 67.0625 -26.0625 67.0625 -26.875 L 67.0625 -36.3125 C 67.0625 -36.550781 66.976562 -36.671875 66.8125 -36.671875 C 65.363281 -36.671875 64.15625 -36.1875 63.1875 -35.21875 L 61.859375 -33.890625 C 61.210938 -33.484375 60.566406 -33.484375 59.921875 -33.890625 C 59.191406 -34.210938 58.828125 -34.738281 58.828125 -35.46875 L 58.828125 -62.34375 C 58.828125 -63.144531 59.191406 -63.707031 59.921875 -64.03125 C 60.566406 -64.351562 61.210938 -64.3125 61.859375 -63.90625 L 62.34375 -63.421875 C 64.351562 -61.566406 66.734375 -60.640625 69.484375 -60.640625 Z M 83.890625 -60.640625 "/></g></g></g><g fill="#d5cec4" fill-opacity="1"><g transform="translate(1105.845282, 196.442469)"><g><path d="M 88.125 -122.859375 C 88.769531 -123.421875 89.492188 -123.539062 90.296875 -123.21875 C 91.023438 -122.894531 91.390625 -122.332031 91.390625 -121.53125 L 91.390625 -94.421875 C 91.390625 -93.609375 91.023438 -93.039062 90.296875 -92.71875 C 89.578125 -92.394531 88.929688 -92.515625 88.359375 -93.078125 C 86.179688 -95.097656 83.640625 -96.109375 80.734375 -96.109375 L 45.15625 -96.109375 C 44.34375 -96.109375 43.65625 -95.828125 43.09375 -95.265625 C 42.445312 -94.703125 42.125 -93.972656 42.125 -93.078125 L 42.125 -74.921875 C 42.125 -74.035156 42.445312 -73.3125 43.09375 -72.75 C 43.65625 -72.1875 44.34375 -71.90625 45.15625 -71.90625 L 55.796875 -71.90625 C 58.703125 -71.90625 61.242188 -72.910156 63.421875 -74.921875 C 64.066406 -75.328125 64.753906 -75.367188 65.484375 -75.046875 C 66.128906 -74.640625 66.453125 -74.078125 66.453125 -73.359375 L 66.453125 -46.484375 C 66.453125 -45.753906 66.128906 -45.226562 65.484375 -44.90625 C 64.753906 -44.5 64.066406 -44.5 63.421875 -44.90625 C 61.242188 -46.925781 58.703125 -47.9375 55.796875 -47.9375 L 45.15625 -47.9375 C 44.34375 -47.9375 43.65625 -47.65625 43.09375 -47.09375 C 42.445312 -46.519531 42.125 -45.789062 42.125 -44.90625 L 42.125 -26.75 C 42.125 -25.863281 42.445312 -25.140625 43.09375 -24.578125 C 43.65625 -24.003906 44.34375 -23.71875 45.15625 -23.71875 L 80.734375 -23.71875 C 83.640625 -23.71875 86.179688 -24.726562 88.359375 -26.75 C 88.929688 -27.3125 89.578125 -27.429688 90.296875 -27.109375 C 91.023438 -26.785156 91.390625 -26.222656 91.390625 -25.421875 L 91.390625 1.578125 C 91.390625 2.460938 91.023438 3.066406 90.296875 3.390625 C 89.492188 3.710938 88.769531 3.59375 88.125 3.03125 C 86.101562 1.164062 83.722656 0.234375 80.984375 0.234375 L 16.46875 0.234375 C 15.65625 0.234375 15.085938 -0.125 14.765625 -0.84375 C 14.441406 -1.488281 14.484375 -2.132812 14.890625 -2.78125 L 15.25 -3.140625 C 16.21875 -4.191406 16.945312 -5.40625 17.4375 -6.78125 C 17.914062 -8.070312 18.15625 -9.398438 18.15625 -10.765625 L 18.15625 -109.0625 C 18.15625 -112.050781 17.1875 -114.59375 15.25 -116.6875 L 14.890625 -117.046875 C 14.484375 -117.691406 14.441406 -118.378906 14.765625 -119.109375 C 15.085938 -119.753906 15.65625 -120.078125 16.46875 -120.078125 L 80.984375 -120.078125 C 83.722656 -120.078125 86.101562 -121.003906 88.125 -122.859375 Z M 88.125 -122.859375 "/></g></g></g><g fill="#d5cec4" fill-opacity="1"><g transform="translate(1211.744147, 196.442469)"><g><path d="M 99.015625 -3.03125 C 99.742188 -2.457031 100.023438 -1.8125 99.859375 -1.09375 C 99.617188 -0.363281 99.054688 0 98.171875 0 L 67.546875 0 C 66.734375 0 66.164062 -0.363281 65.84375 -1.09375 C 65.519531 -1.738281 65.5625 -2.382812 65.96875 -3.03125 L 66.09375 -3.140625 C 66.894531 -4.109375 66.972656 -5.117188 66.328125 -6.171875 L 51.4375 -30.140625 C 50.71875 -31.265625 49.710938 -31.828125 48.421875 -31.828125 L 45.515625 -31.828125 C 44.546875 -31.828125 43.738281 -31.503906 43.09375 -30.859375 C 42.363281 -30.140625 42 -29.253906 42 -28.203125 L 42 -10.53125 C 42 -7.707031 43.007812 -5.207031 45.03125 -3.03125 C 45.507812 -2.382812 45.628906 -1.738281 45.390625 -1.09375 C 45.066406 -0.363281 44.503906 0 43.703125 0 L 16.578125 0 C 15.691406 0 15.085938 -0.363281 14.765625 -1.09375 C 14.441406 -1.8125 14.601562 -2.492188 15.25 -3.140625 C 17.101562 -5.242188 18.03125 -7.664062 18.03125 -10.40625 L 18.03125 -109.671875 C 18.03125 -112.578125 17.023438 -115.117188 15.015625 -117.296875 C 14.441406 -117.941406 14.316406 -118.628906 14.640625 -119.359375 C 14.960938 -120.003906 15.53125 -120.328125 16.34375 -120.328125 L 54.59375 -120.328125 C 60.96875 -120.328125 66.859375 -119.070312 72.265625 -116.5625 C 77.671875 -114.0625 82.3125 -110.472656 86.1875 -105.796875 C 89.488281 -101.765625 92.03125 -97.203125 93.8125 -92.109375 C 95.507812 -86.953125 96.359375 -81.546875 96.359375 -75.890625 C 96.359375 -70.328125 95.507812 -65.003906 93.8125 -59.921875 C 92.03125 -54.835938 89.488281 -50.273438 86.1875 -46.234375 C 84.007812 -43.492188 81.382812 -41.035156 78.3125 -38.859375 C 77.507812 -38.296875 77.023438 -37.566406 76.859375 -36.671875 C 76.617188 -35.785156 76.742188 -34.941406 77.234375 -34.140625 L 92.234375 -10.171875 C 93.609375 -7.992188 95.265625 -6.097656 97.203125 -4.484375 Z M 67.671875 -61.484375 C 69.203125 -63.347656 70.367188 -65.53125 71.171875 -68.03125 C 71.984375 -70.445312 72.390625 -73.066406 72.390625 -75.890625 C 72.390625 -76.460938 72.265625 -77.835938 72.015625 -80.015625 C 71.773438 -82.191406 71.09375 -84.488281 69.96875 -86.90625 C 68.832031 -89.332031 67.097656 -91.515625 64.765625 -93.453125 C 62.335938 -95.390625 58.945312 -96.359375 54.59375 -96.359375 L 45.515625 -96.359375 C 44.546875 -96.359375 43.738281 -96.035156 43.09375 -95.390625 C 42.363281 -94.660156 42 -93.769531 42 -92.71875 L 42 -59.3125 C 42 -58.34375 42.363281 -57.535156 43.09375 -56.890625 C 43.738281 -56.160156 44.546875 -55.796875 45.515625 -55.796875 L 54.59375 -55.796875 C 60.320312 -55.796875 64.679688 -57.691406 67.671875 -61.484375 Z M 67.671875 -61.484375 "/></g></g></g></g></g></g><g clip-path="url(#df6b785925)"><g transform="matrix(1, 0, 0, 1, 752, 0)"><g clip-path="url(#7d14e78961)"><g fill="#d5cec4" fill-opacity="0.4"><g transform="translate(5.223651, 200.617692)"><g><path d="M 14.53125 1.8125 L 14.53125 -20.8125 L 37.890625 -20.8125 L 37.890625 1.8125 Z M 14.53125 1.8125 "/></g></g></g><g fill="#d5cec4" fill-opacity="0.4"><g transform="translate(57.628448, 200.617692)"><g><path d="M 14.53125 1.8125 L 14.53125 -20.8125 L 37.890625 -20.8125 L 37.890625 1.8125 Z M 14.53125 1.8125 "/></g></g></g><g fill="#d5cec4" fill-opacity="1"><g transform="translate(1.264847, 196.658909)"><g><path d="M 14.53125 1.8125 L 14.53125 -20.8125 L 37.890625 -20.8125 L 37.890625 1.8125 Z M 14.53125 1.8125 "/></g></g></g><g fill="#d5cec4" fill-opacity="1"><g transform="translate(53.669645, 196.658909)"><g><path d="M 14.53125 1.8125 L 14.53125 -20.8125 L 37.890625 -20.8125 L 37.890625 1.8125 Z M 14.53125 1.8125 "/></g></g></g></g></g></g></g></g></svg>